<?xml version="1.0" standalone="no"?>
<!DOCTYPE svg PUBLIC "-//W3C//DTD SVG 20010904//EN"
 "http://www.w3.org/TR/2001/REC-SVG-20010904/DTD/svg10.dtd">
<svg version="1.0" xmlns="http://www.w3.org/2000/svg"
 width="513.000000pt" height="513.000000pt" viewBox="0 0 513.000000 513.000000"
 preserveAspectRatio="xMidYMid meet">
<metadata>
Created by potrace 1.11, written by Peter Selinger 2001-2013
</metadata>
<g transform="translate(0.000000,513.000000) scale(0.100000,-0.100000)"
fill="#000000" stroke="none">
<path d="M546 4010 c-195 -52 -351 -179 -445 -360 -80 -153 -76 -98 -76 -1075
0 -809 1 -874 18 -934 73 -257 271 -448 526 -508 72 -17 188 -18 2001 -18
1834 0 1929 1 2003 18 130 31 228 87 332 192 100 100 147 177 186 305 23 75
23 76 27 885 3 860 1 922 -43 1048 -69 199 -234 361 -440 434 l-80 28 -1970 2
c-1894 2 -1973 1 -2039 -17z m1144 -379 c146 -20 251 -49 355 -101 274 -135
447 -370 521 -705 25 -113 24 -402 0 -540 -49 -271 -171 -502 -334 -630 -74
-59 -215 -128 -324 -159 -202 -58 -448 -75 -1075 -76 l-423 0 0 160 0 160 150
0 150 0 -2 798 -3 797 -147 3 -148 3 0 155 0 156 598 -5 c349 -3 632 -10 682
-16z m1640 -451 l0 -450 533 2 532 3 3 448 2 447 145 0 145 0 0 -1095 0 -1095
-145 0 -145 0 0 520 0 520 -535 0 -535 0 0 -520 0 -520 -152 0 -153 0 3 1095
2 1095 150 0 150 0 0 -450z"/>
<path d="M1078 3335 c-5 -5 -8 -365 -8 -802 l0 -793 198 0 c108 0 238 5 287
11 297 37 458 134 559 341 76 154 89 220 90 448 1 218 -9 275 -70 408 -110
241 -252 336 -553 372 -113 13 -494 24 -503 15z"/>
</g>
</svg>
