<?xml version="1.0" standalone="no"?>
<!DOCTYPE svg PUBLIC "-//W3C//DTD SVG 20010904//EN"
 "http://www.w3.org/TR/2001/REC-SVG-20010904/DTD/svg10.dtd">
<svg version="1.0" xmlns="http://www.w3.org/2000/svg"
 width="425.000000pt" height="425.000000pt" viewBox="0 0 425.000000 425.000000"
 preserveAspectRatio="xMidYMid meet">
<metadata>
Created by potrace 1.11, written by Peter Selinger 2001-2013
</metadata>
<g transform="translate(0.000000,425.000000) scale(0.100000,-0.100000)"
fill="#000000" stroke="none">
<path d="M645 3440 c-149 -30 -278 -101 -390 -214 -93 -95 -135 -162 -179
-283 l-31 -88 -3 -709 c-3 -682 -2 -712 17 -790 54 -215 198 -394 396 -491
175 -86 44 -80 1680 -80 l1450 0 84 22 c222 60 394 199 491 398 78 161 75 124
75 915 0 652 -1 710 -18 770 -76 270 -281 471 -551 540 -78 20 -106 20 -1530
19 -798 -1 -1469 -5 -1491 -9z m2075 -606 l0 -485 88 89 c144 147 296 219 482
229 233 13 403 -66 484 -224 60 -119 59 -110 63 -815 l4 -648 -140 0 -140 0
-3 603 c-3 559 -4 606 -22 654 -25 69 -67 118 -130 151 -45 24 -62 27 -151 27
-94 0 -104 -2 -175 -36 -168 -81 -282 -239 -337 -468 -13 -53 -16 -150 -20
-498 l-5 -433 -139 0 -139 0 0 1170 0 1170 140 0 140 0 0 -486z"/>
</g>
</svg>
